# xmcd CD database file
#
# Track frame offsets:
#	150
#	14149
#	28213
#	40751
#	52640
#	65760
#	78300
#	90306
#	103736
#	115873
#	128603
#	143810
#	157048
#	170234
#	181141
#	193147
#	206443
#	218313
#
# Disc length: 3055 seconds
#
# Revision: 0
# Processed by: cddbd v1.5.1PL0 Copyright (c) Steve Scherf et al.
# Submitted via: CDex 1.50beta9
#
DISCID=f40bed12
DTITLE=Anita O'Day - Bolero at the Savoy - CD2
DYEAR=1919
DGENRE=Jazz
TTITLE0=Im going mad for a Pad
TTITLE1=And her Tears Flowed like Wine
TTITLE2=Gotta be getting
TTITLE3=Are you living old Man?
TTITLE4=Travelin Man
TTITLE5=Want a grown-up Man
TTITLE6=Them there Eyes
TTITLE7=Memories of you
TTITLE8=How Come?
TTITLE9=I cant believe that youre in Love with me
TTITLE10=Boogie Blues
TTITLE11=Opus 1
TTITLE12=Chickery Chick
TTITLE13=Tea for Two
TTITLE14=Sometimes Im happy
TTITLE15=Ace in the hole
TTITLE16=What is this Thing called Love
TTITLE17=Hi ho Trailus Boot Whip
EXTD=YEAR: 1919
EXTT0=
EXTT1=
EXTT2=
EXTT3=
EXTT4=
EXTT5=
EXTT6=
EXTT7=
EXTT8=
EXTT9=
EXTT10=
EXTT11=
EXTT12=
EXTT13=
EXTT14=
EXTT15=
EXTT16=
EXTT17=
PLAYORDER=
